<svg width="1200" height="630" viewBox="0 0 1200 630" fill="none" xmlns="http://www.w3.org/2000/svg">
  <rect width="1200" height="630" fill="#090102"/>
  <circle cx="358" cy="283" r="270" fill="#E50918" fill-opacity=".33"/>
  <circle cx="732" cy="142" r="210" fill="#FF5D2E" fill-opacity=".16"/>
  <path d="M0 0h1200v630H0z" fill="url(#grain)" opacity=".22"/>
  <g transform="translate(94 68)">
    <circle cx="245" cy="245" r="210" fill="url(#orb)" stroke="#FFF0DF" stroke-opacity=".14" stroke-width="3"/>
    <path d="M210 122c-85 59-89 206-19 291 40 8 103-10 147-35-70-94-26-206 41-258-43-41-118-54-169 2z" fill="#090102" fill-opacity=".7"/>
    <ellipse cx="170" cy="158" rx="82" ry="38" transform="rotate(-35 170 158)" fill="#080001" fill-opacity=".78"/>
    <ellipse cx="337" cy="132" rx="92" ry="43" transform="rotate(25 337 132)" fill="#080001" fill-opacity=".8"/>
    <ellipse cx="173" cy="345" rx="98" ry="44" transform="rotate(25 173 345)" fill="#080001" fill-opacity=".78"/>
    <ellipse cx="375" cy="338" rx="88" ry="40" transform="rotate(-28 375 338)" fill="#080001" fill-opacity=".78"/>
    <path d="M92 288c145-22 267-21 386-2" stroke="#FFF0DF" stroke-opacity=".32" stroke-width="4"/>
  </g>
  <text x="568" y="286" fill="#FFF0DF" font-family="Impact, Arial Black, sans-serif" font-size="158" letter-spacing="0">TROO</text>
  <text x="956" y="286" fill="#E50918" font-family="Impact, Arial Black, sans-serif" font-size="166">!</text>
  <text x="576" y="357" fill="#FFB7A8" font-family="Trebuchet MS, Segoe UI, sans-serif" font-size="34" font-weight="700" letter-spacing="6">TYPE BEATS / LOOPS / LICENSES</text>
  <defs>
    <radialGradient id="orb" cx="0" cy="0" r="1" gradientUnits="userSpaceOnUse" gradientTransform="translate(292 151) rotate(127) scale(360)">
      <stop stop-color="#FFD9A8"/>
      <stop offset=".24" stop-color="#E50918"/>
      <stop offset="1" stop-color="#210206"/>
    </radialGradient>
    <pattern id="grain" width="12" height="12" patternUnits="userSpaceOnUse">
      <path d="M2 2h1v1H2zM8 4h1v1H8zM5 9h1v1H5z" fill="#FFF0DF"/>
    </pattern>
  </defs>
</svg>
